<svg id="visual" viewBox="0 0 1920 1080" width="1920" height="1080" xmlns="http://www.w3.org/2000/svg" xmlns:xlink="http://www.w3.org/1999/xlink" version="1.1"><path d="M0 98L40 101.7C80 105.3 160 112.7 240 118.2C320 123.7 400 127.3 480 121.8C560 116.3 640 101.7 720 99.8C800 98 880 109 960 125.3C1040 141.7 1120 163.3 1200 154.3C1280 145.3 1360 105.7 1440 94.8C1520 84 1600 102 1680 111C1760 120 1840 120 1880 120L1920 120L1920 0L1880 0C1840 0 1760 0 1680 0C1600 0 1520 0 1440 0C1360 0 1280 0 1200 0C1120 0 1040 0 960 0C880 0 800 0 720 0C640 0 560 0 480 0C400 0 320 0 240 0C160 0 80 0 40 0L0 0Z" fill="#6198ff"></path><path d="M0 239L40 228.2C80 217.3 160 195.7 240 188.3C320 181 400 188 480 184.3C560 180.7 640 166.3 720 171.8C800 177.3 880 202.7 960 226.2C1040 249.7 1120 271.3 1200 265.8C1280 260.3 1360 227.7 1440 222.2C1520 216.7 1600 238.3 1680 234.8C1760 231.3 1840 202.7 1880 188.3L1920 174L1920 118L1880 118C1840 118 1760 118 1680 109C1600 100 1520 82 1440 92.8C1360 103.7 1280 143.3 1200 152.3C1120 161.3 1040 139.7 960 123.3C880 107 800 96 720 97.8C640 99.7 560 114.3 480 119.8C400 125.3 320 121.7 240 116.2C160 110.7 80 103.3 40 99.7L0 96Z" fill="#4385ff"></path><path d="M0 444L40 444C80 444 160 444 240 438.5C320 433 400 422 480 416.5C560 411 640 411 720 438C800 465 880 519 960 562.3C1040 605.7 1120 638.3 1200 616.8C1280 595.3 1360 519.7 1440 512.3C1520 505 1600 566 1680 587.5C1760 609 1840 591 1880 582L1920 573L1920 172L1880 186.3C1840 200.7 1760 229.3 1680 232.8C1600 236.3 1520 214.7 1440 220.2C1360 225.7 1280 258.3 1200 263.8C1120 269.3 1040 247.7 960 224.2C880 200.7 800 175.3 720 169.8C640 164.3 560 178.7 480 182.3C400 186 320 179 240 186.3C160 193.7 80 215.3 40 226.2L0 237Z" fill="#2071ff"></path><path d="M0 735L40 745.8C80 756.7 160 778.3 240 792.8C320 807.3 400 814.7 480 811.2C560 807.7 640 793.3 720 782.5C800 771.7 880 764.3 960 778.7C1040 793 1120 829 1200 838C1280 847 1360 829 1440 832.7C1520 836.3 1600 861.7 1680 858C1760 854.3 1840 821.7 1880 805.3L1920 789L1920 571L1880 580C1840 589 1760 607 1680 585.5C1600 564 1520 503 1440 510.3C1360 517.7 1280 593.3 1200 614.8C1120 636.3 1040 603.7 960 560.3C880 517 800 463 720 436C640 409 560 409 480 414.5C400 420 320 431 240 436.5C160 442 80 442 40 442L0 442Z" fill="#0061f1"></path><path d="M0 843L40 862.8C80 882.7 160 922.3 240 944C320 965.7 400 969.3 480 965.8C560 962.3 640 951.7 720 930C800 908.3 880 875.7 960 881C1040 886.3 1120 929.7 1200 947.7C1280 965.7 1360 958.3 1440 958.3C1520 958.3 1600 965.7 1680 953.2C1760 940.7 1840 908.3 1880 892.2L1920 876L1920 787L1880 803.3C1840 819.7 1760 852.3 1680 856C1600 859.7 1520 834.3 1440 830.7C1360 827 1280 845 1200 836C1120 827 1040 791 960 776.7C880 762.3 800 769.7 720 780.5C640 791.3 560 805.7 480 809.2C400 812.7 320 805.3 240 790.8C160 776.3 80 754.7 40 743.8L0 733Z" fill="#0056d6"></path><path d="M0 1081L40 1081C80 1081 160 1081 240 1081C320 1081 400 1081 480 1081C560 1081 640 1081 720 1081C800 1081 880 1081 960 1081C1040 1081 1120 1081 1200 1081C1280 1081 1360 1081 1440 1081C1520 1081 1600 1081 1680 1081C1760 1081 1840 1081 1880 1081L1920 1081L1920 874L1880 890.2C1840 906.3 1760 938.7 1680 951.2C1600 963.7 1520 956.3 1440 956.3C1360 956.3 1280 963.7 1200 945.7C1120 927.7 1040 884.3 960 879C880 873.7 800 906.3 720 928C640 949.7 560 960.3 480 963.8C400 967.3 320 963.7 240 942C160 920.3 80 880.7 40 860.8L0 841Z" fill="#004cbb"></path></svg>